<?xml version="1.0" standalone="no"?>
<!DOCTYPE svg PUBLIC "-//W3C//DTD SVG 20010904//EN"
 "http://www.w3.org/TR/2001/REC-SVG-20010904/DTD/svg10.dtd">
<svg version="1.0" xmlns="http://www.w3.org/2000/svg"
 width="200.000000pt" height="200.000000pt" viewBox="0 0 200.000000 200.000000"
 preserveAspectRatio="xMidYMid meet">
<metadata>
Created by potrace 1.14, written by Peter Selinger 2001-2017
</metadata>
<g transform="translate(0.000000,200.000000) scale(0.100000,-0.100000)"
fill="#000000" stroke="none">
<path d="M902 1868 c-39 -4 -98 -15 -130 -24 -65 -19 -213 -80 -221 -91 -3 -5
-32 -26 -64 -47 -71 -48 -191 -174 -235 -249 -39 -65 -83 -171 -101 -242 -56
-221 -18 -472 101 -672 42 -72 145 -182 226 -244 78 -59 220 -129 297 -145 98
-21 132 -26 217 -26 144 0 240 20 366 78 29 13 55 24 59 24 3 0 21 11 39 25
18 14 35 25 38 25 3 0 15 8 27 18 161 131 260 275 315 457 25 80 28 106 28
240 1 161 -8 211 -61 343 -70 177 -235 355 -409 441 -86 43 -210 80 -284 87
-113 10 -133 10 -208 2z m253 -133 c43 -9 207 -75 226 -91 8 -8 19 -14 22 -14
12 0 50 -33 128 -110 141 -140 211 -307 213 -510 1 -217 -67 -385 -218 -536
-94 -94 -175 -144 -301 -186 -81 -28 -103 -31 -220 -32 -125 -1 -199 11 -270
44 -11 5 -37 16 -58 24 -93 37 -228 152 -299 254 -36 53 -79 146 -104 227 -14
46 -18 92 -18 200 0 130 2 146 30 226 42 119 92 203 166 280 126 131 262 200
458 233 31 5 205 -1 245 -9z"/>
<path d="M683 1295 c-17 -7 -37 -23 -43 -36 -15 -27 -20 -152 -8 -196 22 -82
136 -90 168 -12 18 42 15 171 -5 208 -8 16 -28 34 -46 40 -18 6 -32 11 -33 11
-1 -1 -15 -7 -33 -15z"/>
<path d="M1244 1294 c-43 -21 -56 -56 -55 -148 2 -92 18 -129 62 -145 38 -13
91 6 109 40 15 27 20 152 8 196 -14 54 -74 82 -124 57z"/>
<path d="M566 791 c-15 -17 -19 -33 -17 -64 1 -23 92 -111 156 -152 230 -147
558 -94 725 119 35 46 37 64 10 94 -33 35 -59 27 -125 -37 -96 -93 -194 -134
-321 -133 -123 1 -242 55 -323 147 -35 40 -82 52 -105 26z"/>
</g>
</svg>
